<svg xmlns="http://www.w3.org/2000/svg" xmlns:xlink="http://www.w3.org/1999/xlink" width="146" height="39" viewBox="0 0 146 39">
    <defs>
        <path id="a" d="M0 .246h33.136v37.138H0z"/>
        <path id="c" d="M.313.256h74.065v29.406H.313z"/>
    </defs>
    <g fill="none" fill-rule="evenodd">
        <g transform="translate(0 1)">
            <mask id="b" fill="#fff">
                <use xlink:href="#a"/>
            </mask>
            <path fill="#18181D" d="M31.782.802C31.63.65 31.143.192 30.563.25c-.603.067-.952.613-1.067.792-2.225 3.465-4.853 6.799-7.395 10.023-2.04 2.585-4.125 5.23-6.06 8.006A273.417 273.417 0 0 1 19.479 7.9c1.127-3.428.791-5.36-1.241-7.136-.395-.337-.808-.481-1.213-.424-.435.058-.81.324-1.138.799C11.21 7.518 2.22 22.55.617 26.672c-1.266 3.31-.268 4.894.208 5.407.406.465.797.507 1.048.464.246-.044.585-.205.8-.73 2.038-4.637 6.704-12.551 10.489-18.546-1.213 4.235-2.056 7.972-2.33 9.72-.443 2.748.164 4.621 1.901 5.888.312.232.626.312.94.241.453-.106.693-.497.824-.762 2.077-3.872 5.15-8.407 9.335-13.767-3.001 6.48-6.658 15.08-7.152 17.02-.68 2.655-.447 4.475.683 5.399.138.12.433.378.817.378a.85.85 0 0 0 .204-.024c.478-.116.666-.585.739-.768 2.203-6.36 9.975-23.22 12.905-28.67 1.556-2.892 1.474-5.352-.246-7.12" mask="url(#b)"/>
        </g>
        <path fill="#18181D" d="M30.49 35c-5.157 0-6.623 2.085-7.243 2.97-.157.198-.323.457-.21.684.13.25.524.345 1.457.345h.052c21.49-.524 78.992-.929 98.113-.079 7.478.336 10.04-.319 13.067-3.332l.274-.273-.394-.001C134.64 35.311 38.943 35 30.49 35M49.613 26.941c-.409-.754.024-3.37 1.895-6.32v-.002c2.36-3.734 5.363-6.166 6.253-6.188.006.011.532 1.024-2.418 6.61-2.185 4.183-4.321 6.046-5.485 6.044h-.028c-.095-.002-.152-.024-.217-.144zM40.824 13.74l-.058.651c.18.197.305 1.884-2.388 6.535-3.28 5.605-5.071 6.17-5.657 6.16-.09-.002-.139-.02-.198-.127-.401-.738.042-3.366 1.922-6.384 2.356-3.778 5.289-6.18 6.269-6.18.017 0 .033 0 .049.002l.061-.657zM28.636 27.73c.72 1.352 1.994 2.097 3.59 2.097 2.046 0 3.794-1.293 4.984-2.507.524 1.591 1.925 2.563 3.968 2.676.072.002.147.005.22.005 1.556 0 3.171-.882 4.483-2.095.73 1.23 1.94 1.92 3.455 1.92 1.997 0 3.742-1.28 4.937-2.476.507 1.563 1.876 2.491 3.927 2.603.077.004.153.007.229.007 2.658 0 5.447-2.442 6.66-4.892.612-1.253.638-2.595.343-3.244-.193-.385-.52-.611-.896-.619-.438.026-.75.225-.99.658-1.595 3.113-3.779 5.504-5.08 5.568h-.008c-.252.016-.31-.06-.326-.083-.157-.23-.212-1.185.708-3.144 1.71-3.588 4.696-8.806 6.874-12.615.575-1.006 1.097-1.918 1.53-2.684 1.734-3.066 2.159-5.246 1.385-7.046-.26-.67-.704-.821-.946-.852-.305-.034-.79.052-1.263.707-1.385 1.941-4.11 6.696-6.398 10.933a3.13 3.13 0 0 0-.548-.769c-.585-.591-1.387-.906-2.324-.906-2.254 0-5.967 1.894-9.623 7.207-1.367 1.977-2.153 4.065-2.337 5.946-1.336 1.939-2.784 3.26-3.756 3.306-.228.014-.299-.06-.321-.091-.167-.24-.254-1.206.622-3.145.567-1.24 1.478-2.768 2.36-4.246.702-1.178 1.366-2.291 1.802-3.172 1.146-2.366.78-4.499-.032-5.461-.328-.42-.703-.513-.949-.493-.634.017-1.037.59-1.169.78l-.001.003c-.211.303-.434.651-.684 1.067a3.15 3.15 0 0 0-.595-.887c-.591-.616-1.414-.94-2.382-.94-2.887 0-6.502 2.724-9.67 7.288-2.366 3.414-3.064 7.181-1.78 9.597z"/>
        <g transform="translate(71)">
            <mask id="d" fill="#fff">
                <use xlink:href="#c"/>
            </mask>
            <path fill="#18181D" d="M60.892 20.453c-2.15 4.214-4.265 6.093-5.42 6.098h-.018c-.104-.002-.161-.024-.227-.144-.407-.758.011-3.388 1.856-6.364 2.33-3.765 5.301-6.22 6.183-6.244.006.011.532 1.024-2.374 6.654M46.527 17.37c-.239-.028-2.002-3.345.042-3.104.891.104.198 3.133-.042 3.104M44.73 22.1c-1.495 2.778-3.207 4.21-4.241 4.395-.391.071-.533-.061-.584-.106-.639-.558-.484-4.059 1.398-7.386.665-1.161 1.458-2.226 2.266-3.049.381 1.279 1.25 2.361 2.08 2.955.123.116.252.218.386.305a20.413 20.413 0 0 1-1.305 2.885m-13.436-4.626c-.24-.03-1.974-3.41.07-3.167.89.104.17 3.193-.07 3.167m-1.653 4.686c-1.548 2.883-3.222 4.147-4.184 4.351-.29.063-.518.033-.67-.083-.75-.588-.408-4.118 1.43-7.362.669-1.168 1.464-2.235 2.272-3.056.425 1.349 1.442 2.486 2.489 3.18-.273.818-.708 1.778-1.337 2.97M74.003 1.115c-.26-.674-.701-.824-.942-.854-.318-.032-.783.054-1.252.718-1.36 1.946-4.048 6.739-6.305 11.014a3.155 3.155 0 0 0-.548-.768c-.582-.595-1.38-.907-2.31-.904-2.036.009-5.262 1.604-8.541 5.917-.003 0-.006 0-.018.016-.903 1.087-3.051 1.624-3.517 1.705 0 0 .66-2.097-1.445-4.77-.202-.258-1.956-2.584-4.16-2.452-2.576.154-4.671 2.173-5.976 3.81-.382.479-.717.919-.958 1.363-1.136 2.099-2.473 2.112-2.533 2.09.063-2.326-.661-3.909-1.446-4.718-.234-.24-.475-.487-.698-.795-.998-1.392-1.945-1.853-3.49-1.688-3.104.271-5.855 3.266-7.396 5.98a16.677 16.677 0 0 0-.971 2.096c-.73-1.688-2.295-2.613-4.411-2.613l-.147.001c-1.286.022-2.688.274-4.171.54-1.666.299-3.387.608-5.123.631-.619 0-.915.27-1.055.496-.14.225-.248.61.019 1.148.848 1.816 2.564 2.69 4.812 2.463.706-.058 1.528-.186 2.48-.356-1.737 2.809-4.265 4.982-6.347 5.357-.832.15-1.512-.007-2.011-.47-1.402-1.3-1.61-7.57 2.268-13.503 3.26-4.986 8.52-8.36 10.855-8.584.389-.038.599.026.67.098.335.338-.212 1.712-.613 2.715-.286.717-.581 1.46-.773 2.197-.702 2.708.369 4.126 1.321 4.786.455.412.864.421 1.13.358.38-.093.682-.389.849-.833a91.911 91.911 0 0 1 1.676-4.135c.664-1.52.767-2.868.328-4.236-.427-1.39-1.267-2.542-2.491-3.421-1.569-1.153-3.617-1.267-6.444-.357C9.518 2.733.225 11.153.314 20.974c.04 3.233 1.105 5.659 3.16 7.2 1.299.993 2.794 1.488 4.525 1.488 1.013 0 2.106-.17 3.288-.508 2.383-.67 7.411-4.419 6.928-8.639.854-.072 1.589-.078 2.138-.02.265.043.464.016.633-.034-.678 2.652-.392 5.053.93 6.774 1.183 1.528 2.718 2.328 4.369 2.32a5.571 5.571 0 0 0 1.757-.301c3.324-1.099 6-5.333 7.042-9.13a7.315 7.315 0 0 0 1.086-.155c-.833 2.849-.55 5.37.829 7.198 1.545 2.051 3.915 2.968 6.176 2.024 2.321-.969 5.756-4.544 7.012-9.144.431-.101 1.599-.297 1.854-.546-1.4 2.865-1.678 5.753-.629 7.728.716 1.346 1.977 2.085 3.553 2.078 1.982-.008 3.708-1.301 4.89-2.509.51 1.57 1.873 2.497 3.907 2.601.078.004.15.007.228.007 2.64-.01 5.4-2.48 6.593-4.947.6-1.26.624-2.609.327-3.26-.193-.388-.519-.613-.894-.62-.418-.016-.74.23-.979.666-1.568 3.133-3.727 5.548-5.02 5.618l-.007-.001c-.255.017-.307-.059-.323-.083-.159-.23-.219-1.188.687-3.161 1.685-3.612 4.622-8.864 6.768-12.699a560.24 560.24 0 0 0 1.513-2.717c1.71-3.087 2.122-5.279 1.348-7.087" mask="url(#d)"/>
        </g>
    </g>
</svg>
